<?xml version="1.0" encoding="UTF-8" standalone="no"?><svg xmlns:dc="http://purl.org/dc/elements/1.1/" xmlns:cc="http://creativecommons.org/ns#" xmlns:rdf="http://www.w3.org/1999/02/22-rdf-syntax-ns#" xmlns:svg="http://www.w3.org/2000/svg" xmlns="http://www.w3.org/2000/svg" id="svg2" version="1.1" viewBox="0 0 255 255" height="255" width="255"> <g transform="translate(0,-797.36216)"> <path d="m 27.32145,1031.2344 c -8.78524,-1.5197 -14.39027,-5.2466 -17.09869,-11.3695 -2.20417,-4.9829 -1.85595,-10.9227 1.02172,-17.4281 3.82742,-8.65257 99.72302,-171.11785 102.98574,-174.47736 8.83202,-9.09403 19.85044,-9.09403 28.68245,0 3.26272,3.35951 99.15832,165.82479 102.98575,174.47736 5.48365,12.3966 1.50736,22.921 -10.45197,27.6641 -2.72104,1.0792 -20.5677,1.3216 -104.53125,1.4201 -55.6875,0.065 -102.30469,-0.064 -103.59375,-0.2866 z m 188.92682,-20.4053 c 2.09758,-0.8764 3.80484,-2.5356 4.83761,-4.7013 1.52676,-3.2016 1.51415,-3.5395 -0.29065,-7.78617 -3.32527,-7.82437 -82.90321,-143.09036 -85.75602,-145.76744 -3.80698,-3.57249 -9.13131,-3.57249 -12.92836,0 -2.85547,2.68661 -82.4648,137.99085 -85.76559,145.76744 -1.80175,4.24487 -1.81444,4.58567 -0.28977,7.78297 2.98635,6.2624 -1.3177,5.9816 92.31169,6.0222 71.73445,0.031 85.13373,-0.1698 87.88109,-1.3177 z m -97.25313,-17.26355 c -3.56129,-3.32194 -3.90779,-4.06995 -4.23415,-9.14062 -0.28102,-4.36649 0.0461,-6.16225 1.56269,-8.57805 4.10579,-6.54025 13.13208,-8.81433 19.52196,-4.91837 5.01252,3.05616 6.95063,7.05809 6.53626,13.49642 -0.32635,5.07067 -0.67285,5.81868 -4.23414,9.14062 -3.61997,3.37667 -4.25879,3.61802 -9.57631,3.61802 -5.31753,0 -5.95634,-0.24135 -9.57631,-3.61802 z m 2.10713,-36.34366 c -1.60905,-1.35393 -3.8336,-4.20158 -4.94345,-6.32812 -1.84785,-3.54064 -2.07915,-5.92041 -2.74482,-28.24145 -0.85263,-28.59034 -0.35842,-31.84057 5.66959,-37.28651 6.30736,-5.69832 12.66835,-5.69832 18.97571,0 6.02802,5.44594 6.52223,8.69617 5.66959,37.28651 -0.66567,22.32104 -0.89696,24.70081 -2.74482,28.24145 -3.16492,6.0642 -7.01391,8.7898 -12.41262,8.7898 -3.53683,0 -5.19191,-0.54548 -7.46918,-2.46168 z" style="fill:#ededed"/> </g></svg>